<svg xmlns="http://www.w3.org/2000/svg" viewBox="0 0 1032.53 225.77"><defs><style>.cls-1{fill:#f7931e;}.cls-2{fill:#fff;}</style></defs><title>apcAsset 3</title><g id="Layer_2" data-name="Layer 2"><g id="Layer_1-2" data-name="Layer 1"><polygon class="cls-1" points="4.33 223.27 130.35 5 158.04 52.96 87.2 179.44 121.79 179.45 175.65 83.45 256.37 223.27 4.33 223.27"/><path class="cls-1" d="M130.35,10l24.81,43L87.1,174.5l-4.17,7.44h40.32l1.43-2.55,51-90.89L252,220.77H8.66L130.35,10m0-10L0,225.77H260.7L175.61,78.4,120.32,177H91.46l69.46-124L130.35,0Z"/><path class="cls-2" d="M596.38,220.63h-1.71V177.16l-19.08,43.47h-1.36l-19-43.25v43.25h-1.71v-46H556l18.92,43.5,19-43.5h2.5Z"/><path class="cls-2" d="M640,205.81a16.63,16.63,0,0,1-2,8.5,12.94,12.94,0,0,1-5.56,5.21,19.84,19.84,0,0,1-16.25,0,12.93,12.93,0,0,1-5.58-5.21,16.63,16.63,0,0,1-2-8.5V174.63h1.71v31.18a14.39,14.39,0,0,0,1.81,7.42,11.85,11.85,0,0,0,5,4.71,16.88,16.88,0,0,0,14.39,0,11.92,11.92,0,0,0,5-4.71,14.39,14.39,0,0,0,1.82-7.42V174.63H640Z"/><path class="cls-2" d="M657.08,195a13.1,13.1,0,0,1-5-3.86,10.34,10.34,0,0,1,.21-11.87,12.26,12.26,0,0,1,5.45-3.92,21.22,21.22,0,0,1,7.83-1.36,17.71,17.71,0,0,1,7.91,1.71,13,13,0,0,1,5.45,4.78,12.89,12.89,0,0,1,2,7.09h-1.7a11.13,11.13,0,0,0-1.71-6.08,11.84,11.84,0,0,0-4.8-4.25,15.72,15.72,0,0,0-7.11-1.54,18.62,18.62,0,0,0-7.26,1.29,10.93,10.93,0,0,0-4.68,3.46,7.76,7.76,0,0,0-1.61,4.72,8.32,8.32,0,0,0,1.23,4.54,11.2,11.2,0,0,0,4.28,3.57,39.21,39.21,0,0,0,8.42,3,45.1,45.1,0,0,1,8.34,2.91,14,14,0,0,1,5.21,4.12,10.82,10.82,0,0,1-.17,12.49,13,13,0,0,1-5.63,4.05,21.63,21.63,0,0,1-7.91,1.39,24.63,24.63,0,0,1-8.16-1.34,13.85,13.85,0,0,1-6.32-4.4,12,12,0,0,1-2.48-7.88h1.7a10.27,10.27,0,0,0,2.31,7,12.63,12.63,0,0,0,5.77,3.8,22.77,22.77,0,0,0,7.18,1.14,19.18,19.18,0,0,0,7.17-1.26,11.53,11.53,0,0,0,4.93-3.52,8.16,8.16,0,0,0,1.77-5.17,8.81,8.81,0,0,0-1.37-5,11.56,11.56,0,0,0-4.44-3.63,44.34,44.34,0,0,0-8.37-3A51.49,51.49,0,0,1,657.08,195Z"/><path class="cls-2" d="M691.65,220.63v-46h1.71v46Z"/><path class="cls-2" d="M733.52,217.55q-4.31,3.7-11.38,3.71a15.36,15.36,0,0,1-8.77-2.53,16.29,16.29,0,0,1-5.83-7.11,25.53,25.53,0,0,1-2-10.55v-6.88a25.61,25.61,0,0,1,2-10.56,16.32,16.32,0,0,1,5.83-7.1,15.36,15.36,0,0,1,8.77-2.53q7.07,0,11.38,3.71c2.88,2.48,4.55,6.12,5,10.95h-1.71q-.72-6.36-4.45-9.65c-2.48-2.2-5.9-3.3-10.23-3.3a13.62,13.62,0,0,0-7.82,2.29,14.8,14.8,0,0,0-5.26,6.46,23.51,23.51,0,0,0-1.87,9.66v6.95a23.74,23.74,0,0,0,1.87,9.72,14.83,14.83,0,0,0,5.26,6.47,13.62,13.62,0,0,0,7.82,2.29q13.32,0,14.68-13h1.71Q737.84,213.83,733.52,217.55Z"/><path class="cls-2" d="M766.36,176.34v19.9h23.57V198H766.36v22.62h-1.7v-46h28.49v1.71Z"/><path class="cls-2" d="M803.38,176.34v19.77h23.06v1.71H803.38v21.1h26.29v1.71h-28v-46h28v1.71Z"/><path class="cls-2" d="M843.46,195a13.1,13.1,0,0,1-5-3.86,10.34,10.34,0,0,1,.21-11.87,12.28,12.28,0,0,1,5.44-3.92A21.31,21.31,0,0,1,852,174a17.74,17.74,0,0,1,7.91,1.71,13,13,0,0,1,5.45,4.78,12.89,12.89,0,0,1,2,7.09h-1.71a11.12,11.12,0,0,0-1.7-6.08,11.84,11.84,0,0,0-4.8-4.25,15.75,15.75,0,0,0-7.11-1.54A18.7,18.7,0,0,0,844.7,177a11,11,0,0,0-4.67,3.46,7.7,7.7,0,0,0-1.61,4.72,8.32,8.32,0,0,0,1.23,4.54,11.2,11.2,0,0,0,4.28,3.57,39.21,39.21,0,0,0,8.42,3,45.1,45.1,0,0,1,8.34,2.91,14,14,0,0,1,5.21,4.12,10,10,0,0,1,1.89,6.21,9.88,9.88,0,0,1-2.06,6.28,13,13,0,0,1-5.63,4.05,21.67,21.67,0,0,1-7.91,1.39,24.69,24.69,0,0,1-8.17-1.34,13.88,13.88,0,0,1-6.31-4.4,12,12,0,0,1-2.48-7.88h1.7a10.27,10.27,0,0,0,2.31,7,12.66,12.66,0,0,0,5.76,3.8,22.83,22.83,0,0,0,7.19,1.14,19.25,19.25,0,0,0,7.17-1.26,11.53,11.53,0,0,0,4.93-3.52,8.16,8.16,0,0,0,1.77-5.17,8.74,8.74,0,0,0-1.38-5,11.44,11.44,0,0,0-4.43-3.63,44.21,44.21,0,0,0-8.38-3A51.68,51.68,0,0,1,843.46,195Z"/><path class="cls-2" d="M907.38,176.34H890.63v44.29h-1.7V176.34H872.19v-1.71h35.19Z"/><path class="cls-2" d="M916.7,220.63v-46h1.7v46Z"/><path class="cls-2" d="M963.54,174.63l-17.18,46h-2.09l-17.18-46H929l15.45,41.51.92,2.78.91-2.78,15.45-41.51Z"/><path class="cls-2" d="M992.83,206.88H970.27l-5.12,13.75h-1.86l17.22-46h2.08l17.22,46h-1.87Zm-.64-1.7-10.64-28.49L970.9,205.18Z"/><path class="cls-2" d="M1032.53,218.92v1.71H1007.2v-46h1.74v44.29Z"/><path class="cls-2" d="M345.27,102.37h-52L281.47,135H264.34L312,10.3h14.55L374.22,135H357.17Zm-4.88-13.45L319.23,30.69,298.17,88.92Z"/><path class="cls-2" d="M466.71,121.64V135H391V10.3h16.62V121.64Z"/><path class="cls-2" d="M553.55,23.75h-40V135H497.11V23.75H457.2V10.3h96.35Z"/><path class="cls-2" d="M573.24,135V10.3h16.62V135Z"/><path class="cls-2" d="M706,23.75H666V135H649.55V23.75H609.64V10.3H706Z"/><path class="cls-2" d="M812.35,94.66q0,13.53-6.12,23A38.19,38.19,0,0,1,789.79,132a57.84,57.84,0,0,1-45.91,0,36.84,36.84,0,0,1-16-14.22Q722,108.28,722,94.66V10.3h16.44V94.66q0,14.22,7.67,21.45t20.94,7.24q13.37,0,21-7.24t7.62-21.45V10.3h16.7Z"/><path class="cls-2" d="M902.23,17.45a49,49,0,0,1,19.36,20.43q6.88,13.27,6.89,31v7.54q0,17.89-6.89,31.13a48.29,48.29,0,0,1-19.66,20.34Q889.17,135,872,135H838.22V10.3h35.19Q889.78,10.3,902.23,17.45ZM912,68.71q0-14.22-4.5-24.28a33.35,33.35,0,0,0-13.19-15.37q-8.69-5.31-20.94-5.31H854.83v97.89H872q13,0,22-5.53a34.38,34.38,0,0,0,13.53-15.67q4.53-10.16,4.54-24Z"/><path class="cls-2" d="M1032.53,121.64V135H953.32V10.3h78.36V23.75H969.93V63.91h53.87V77.27H969.93v44.37Z"/></g></g></svg>